{
	"patcher" : 	{
		"fileversion" : 1,
		"appversion" : 		{
			"major" : 8,
			"minor" : 6,
			"revision" : 0,
			"architecture" : "x64",
			"modernui" : 1
		}
,
		"classnamespace" : "dsp.gen",
		"rect" : [ 34.0, 100.0, 1285.0, 983.0 ],
		"bglocked" : 0,
		"openinpresentation" : 0,
		"default_fontsize" : 12.0,
		"default_fontface" : 0,
		"default_fontname" : "Arial",
		"gridonopen" : 1,
		"gridsize" : [ 15.0, 15.0 ],
		"gridsnaponopen" : 1,
		"objectsnaponopen" : 1,
		"statusbarvisible" : 2,
		"toolbarvisible" : 1,
		"lefttoolbarpinned" : 0,
		"toptoolbarpinned" : 0,
		"righttoolbarpinned" : 0,
		"bottomtoolbarpinned" : 0,
		"toolbars_unpinned_last_save" : 0,
		"tallnewobj" : 0,
		"boxanimatetime" : 200,
		"enablehscroll" : 1,
		"enablevscroll" : 1,
		"devicewidth" : 0.0,
		"description" : "",
		"digest" : "",
		"tags" : "",
		"style" : "",
		"subpatcher_template" : "",
		"assistshowspatchername" : 0,
		"boxes" : [ 			{
				"box" : 				{
					"id" : "obj-32",
					"maxclass" : "newobj",
					"numinlets" : 2,
					"numoutlets" : 1,
					"outlettype" : [ "" ],
					"patching_rect" : [ 230.5, 591.304344654083252, 90.06211131811142, 22.0 ],
					"text" : "*"
				}

			}
, 			{
				"box" : 				{
					"id" : "obj-33",
					"maxclass" : "newobj",
					"numinlets" : 1,
					"numoutlets" : 1,
					"outlettype" : [ "" ],
					"patching_rect" : [ 230.5, 513.664593517780304, 62.0, 22.0 ],
					"text" : "phasor 66"
				}

			}
, 			{
				"box" : 				{
					"color" : [ 0.0, 0.576470588235294, 1.0, 1.0 ],
					"id" : "obj-34",
					"linecount" : 3,
					"maxclass" : "newobj",
					"numinlets" : 0,
					"numoutlets" : 1,
					"outlettype" : [ "" ],
					"patching_rect" : [ 301.56211131811142, 513.664593517780304, 103.0, 49.0 ],
					"text" : "param @name B @min 0 @max 1 @default 0.5"
				}

			}
, 			{
				"box" : 				{
					"id" : "obj-31",
					"maxclass" : "newobj",
					"numinlets" : 2,
					"numoutlets" : 1,
					"outlettype" : [ "" ],
					"patching_rect" : [ 37.0, 591.304344654083252, 90.06211131811142, 22.0 ],
					"text" : "*"
				}

			}
, 			{
				"box" : 				{
					"id" : "obj-30",
					"maxclass" : "newobj",
					"numinlets" : 1,
					"numoutlets" : 1,
					"outlettype" : [ "" ],
					"patching_rect" : [ 37.0, 513.664593517780304, 62.0, 22.0 ],
					"text" : "phasor 44"
				}

			}
, 			{
				"box" : 				{
					"color" : [ 0.423529411764706, 0.0, 1.0, 1.0 ],
					"id" : "obj-27",
					"linecount" : 4,
					"maxclass" : "newobj",
					"numinlets" : 0,
					"numoutlets" : 1,
					"outlettype" : [ "" ],
					"patching_rect" : [ 1055.0, 347.0, 103.0, 62.0 ],
					"text" : "param @name AD @min 0 @max 1 @default 0.5"
				}

			}
, 			{
				"box" : 				{
					"color" : [ 0.423529411764706, 0.0, 1.0, 1.0 ],
					"id" : "obj-29",
					"linecount" : 4,
					"maxclass" : "newobj",
					"numinlets" : 0,
					"numoutlets" : 1,
					"outlettype" : [ "" ],
					"patching_rect" : [ 932.0, 347.0, 103.0, 62.0 ],
					"text" : "param @name AC @min 0 @max 1 @default 0.5"
				}

			}
, 			{
				"box" : 				{
					"color" : [ 0.423529411764706, 0.0, 1.0, 1.0 ],
					"id" : "obj-17",
					"linecount" : 2,
					"maxclass" : "newobj",
					"numinlets" : 0,
					"numoutlets" : 1,
					"outlettype" : [ "" ],
					"patching_rect" : [ 1056.0, 128.0, 100.0, 35.0 ],
					"text" : "param @name gate"
				}

			}
, 			{
				"box" : 				{
					"id" : "obj-28",
					"linecount" : 2,
					"maxclass" : "comment",
					"numinlets" : 1,
					"numoutlets" : 0,
					"patching_rect" : [ 924.0, 24.0, 150.0, 33.0 ],
					"text" : "Dedicated param for MIDI Note/Velocity"
				}

			}
, 			{
				"box" : 				{
					"color" : [ 0.423529411764706, 0.0, 1.0, 1.0 ],
					"id" : "obj-25",
					"linecount" : 2,
					"maxclass" : "newobj",
					"numinlets" : 0,
					"numoutlets" : 1,
					"outlettype" : [ "" ],
					"patching_rect" : [ 1051.0, 68.0, 100.0, 35.0 ],
					"text" : "param @name gain"
				}

			}
, 			{
				"box" : 				{
					"color" : [ 0.423529411764706, 0.0, 1.0, 1.0 ],
					"id" : "obj-23",
					"linecount" : 4,
					"maxclass" : "newobj",
					"numinlets" : 0,
					"numoutlets" : 1,
					"outlettype" : [ "" ],
					"patching_rect" : [ 928.0, 61.0, 100.0, 62.0 ],
					"text" : "param @name freq @min 20 @max 20000 @default 400"
				}

			}
, 			{
				"box" : 				{
					"id" : "obj-21",
					"linecount" : 4,
					"maxclass" : "comment",
					"numinlets" : 1,
					"numoutlets" : 0,
					"patching_rect" : [ 408.0, 744.0, 150.0, 60.0 ],
					"text" : "These extra Output must be properly defined using our online compiler (CV outs first)"
				}

			}
, 			{
				"box" : 				{
					"color" : [ 0.423529411764706, 0.0, 1.0, 1.0 ],
					"id" : "obj-14",
					"linecount" : 4,
					"maxclass" : "newobj",
					"numinlets" : 0,
					"numoutlets" : 1,
					"outlettype" : [ "" ],
					"patching_rect" : [ 1051.0, 269.0, 103.0, 62.0 ],
					"text" : "param @name AB @min 0 @max 1 @default 0.5"
				}

			}
, 			{
				"box" : 				{
					"id" : "obj-3",
					"linecount" : 3,
					"maxclass" : "comment",
					"numinlets" : 1,
					"numoutlets" : 0,
					"patching_rect" : [ 701.0, 675.0, 61.0, 47.0 ],
					"text" : "Gate Out\n(Assign Button 3)"
				}

			}
, 			{
				"box" : 				{
					"color" : [ 1.0, 0.0, 0.0, 1.0 ],
					"id" : "obj-8",
					"maxclass" : "newobj",
					"numinlets" : 1,
					"numoutlets" : 0,
					"patching_rect" : [ 701.0, 633.0, 43.0, 22.0 ],
					"text" : "out 5"
				}

			}
, 			{
				"box" : 				{
					"id" : "obj-26",
					"linecount" : 5,
					"maxclass" : "comment",
					"numinlets" : 1,
					"numoutlets" : 0,
					"patching_rect" : [ 928.0, 193.0, 150.0, 74.0 ],
					"text" : "Extra control via MIDI CC for full list please click on the message box on the parent patcher named \"MIDI CC reference page\""
				}

			}
, 			{
				"box" : 				{
					"color" : [ 0.0, 0.576470588235294, 1.0, 1.0 ],
					"id" : "obj-20",
					"linecount" : 3,
					"maxclass" : "newobj",
					"numinlets" : 0,
					"numoutlets" : 1,
					"outlettype" : [ "" ],
					"patching_rect" : [ 108.06211131811142, 513.664593517780304, 102.0, 49.0 ],
					"text" : "param @name A @min 0 @max 1 @default 0.5"
				}

			}
, 			{
				"box" : 				{
					"id" : "obj-19",
					"linecount" : 3,
					"maxclass" : "comment",
					"numinlets" : 1,
					"numoutlets" : 0,
					"patching_rect" : [ 564.0, 675.0, 61.0, 47.0 ],
					"text" : "CV Out 2 (Assign Output G)"
				}

			}
, 			{
				"box" : 				{
					"id" : "obj-18",
					"linecount" : 3,
					"maxclass" : "comment",
					"numinlets" : 1,
					"numoutlets" : 0,
					"patching_rect" : [ 408.0, 675.0, 61.0, 47.0 ],
					"text" : "CV Out 1 (Assign Output F)"
				}

			}
, 			{
				"box" : 				{
					"id" : "obj-16",
					"maxclass" : "comment",
					"numinlets" : 1,
					"numoutlets" : 0,
					"patching_rect" : [ 209.5, 666.0, 77.0, 20.0 ],
					"text" : "Audio Out R"
				}

			}
, 			{
				"box" : 				{
					"id" : "obj-15",
					"maxclass" : "comment",
					"numinlets" : 1,
					"numoutlets" : 0,
					"patching_rect" : [ 27.5, 671.0, 77.0, 20.0 ],
					"text" : "Audio Out L"
				}

			}
, 			{
				"box" : 				{
					"id" : "obj-12",
					"maxclass" : "comment",
					"numinlets" : 1,
					"numoutlets" : 0,
					"patching_rect" : [ 216.5, 365.0, 70.0, 20.0 ],
					"text" : "Audio In R"
				}

			}
, 			{
				"box" : 				{
					"id" : "obj-9",
					"maxclass" : "comment",
					"numinlets" : 1,
					"numoutlets" : 0,
					"patching_rect" : [ 27.5, 360.0, 70.0, 20.0 ],
					"text" : "Audio In L"
				}

			}
, 			{
				"box" : 				{
					"color" : [ 1.0, 0.0, 0.0, 1.0 ],
					"id" : "obj-7",
					"maxclass" : "newobj",
					"numinlets" : 1,
					"numoutlets" : 0,
					"patching_rect" : [ 564.0, 633.0, 43.0, 22.0 ],
					"text" : "out 4"
				}

			}
, 			{
				"box" : 				{
					"color" : [ 1.0, 0.0, 0.0, 1.0 ],
					"id" : "obj-6",
					"maxclass" : "newobj",
					"numinlets" : 1,
					"numoutlets" : 0,
					"patching_rect" : [ 408.0, 633.0, 44.0, 22.0 ],
					"text" : "out 3"
				}

			}
, 			{
				"box" : 				{
					"color" : [ 1.0, 0.0, 0.0, 1.0 ],
					"id" : "obj-5",
					"maxclass" : "newobj",
					"numinlets" : 1,
					"numoutlets" : 0,
					"patching_rect" : [ 230.5, 633.0, 35.0, 22.0 ],
					"text" : "out 2"
				}

			}
, 			{
				"box" : 				{
					"color" : [ 0.423529411764706, 0.0, 1.0, 1.0 ],
					"id" : "obj-165",
					"linecount" : 4,
					"maxclass" : "newobj",
					"numinlets" : 0,
					"numoutlets" : 1,
					"outlettype" : [ "" ],
					"patching_rect" : [ 928.0, 269.0, 103.0, 62.0 ],
					"text" : "param @name AA @min 0 @max 1 @default 0.5"
				}

			}
, 			{
				"box" : 				{
					"color" : [ 0.0, 0.576470588235294, 1.0, 1.0 ],
					"id" : "obj-94",
					"linecount" : 3,
					"maxclass" : "newobj",
					"numinlets" : 0,
					"numoutlets" : 1,
					"outlettype" : [ "" ],
					"patching_rect" : [ 353.0, 61.0, 103.0, 49.0 ],
					"text" : "param @name D @min 0 @max 1 @default 0.5"
				}

			}
, 			{
				"box" : 				{
					"color" : [ 0.0, 0.576470588235294, 1.0, 1.0 ],
					"id" : "obj-41",
					"linecount" : 4,
					"maxclass" : "newobj",
					"numinlets" : 0,
					"numoutlets" : 1,
					"outlettype" : [ "" ],
					"patching_rect" : [ 679.0, 61.0, 103.0, 62.0 ],
					"text" : "param @name ButtonB @min 0 @max 1 @default 0.5"
				}

			}
, 			{
				"box" : 				{
					"color" : [ 0.0, 0.576470588235294, 1.0, 1.0 ],
					"id" : "obj-13",
					"linecount" : 4,
					"maxclass" : "newobj",
					"numinlets" : 0,
					"numoutlets" : 1,
					"outlettype" : [ "" ],
					"patching_rect" : [ 567.0, 61.0, 103.0, 62.0 ],
					"text" : "param @name ButtonA @min 0 @max 1 @default 0.5"
				}

			}
, 			{
				"box" : 				{
					"color" : [ 0.0, 0.576470588235294, 1.0, 1.0 ],
					"id" : "obj-11",
					"linecount" : 3,
					"maxclass" : "newobj",
					"numinlets" : 0,
					"numoutlets" : 1,
					"outlettype" : [ "" ],
					"patching_rect" : [ 238.0, 61.0, 103.0, 49.0 ],
					"text" : "param @name C @min 0 @max 1 @default 0.5"
				}

			}
, 			{
				"box" : 				{
					"color" : [ 0.576470588235294, 1.0, 0.0, 1.0 ],
					"id" : "obj-1",
					"maxclass" : "newobj",
					"numinlets" : 0,
					"numoutlets" : 1,
					"outlettype" : [ "" ],
					"patching_rect" : [ 40.5, 401.0, 28.0, 22.0 ],
					"text" : "in 1"
				}

			}
, 			{
				"box" : 				{
					"color" : [ 0.576470588235294, 1.0, 0.0, 1.0 ],
					"id" : "obj-2",
					"maxclass" : "newobj",
					"numinlets" : 0,
					"numoutlets" : 1,
					"outlettype" : [ "" ],
					"patching_rect" : [ 234.0, 401.0, 28.0, 22.0 ],
					"text" : "in 2"
				}

			}
, 			{
				"box" : 				{
					"color" : [ 1.0, 0.0, 0.0, 1.0 ],
					"id" : "obj-4",
					"maxclass" : "newobj",
					"numinlets" : 1,
					"numoutlets" : 0,
					"patching_rect" : [ 37.0, 639.0, 35.0, 22.0 ],
					"text" : "out 1"
				}

			}
 ],
		"lines" : [ 			{
				"patchline" : 				{
					"destination" : [ "obj-31", 1 ],
					"source" : [ "obj-20", 0 ]
				}

			}
, 			{
				"patchline" : 				{
					"destination" : [ "obj-31", 0 ],
					"source" : [ "obj-30", 0 ]
				}

			}
, 			{
				"patchline" : 				{
					"destination" : [ "obj-4", 0 ],
					"source" : [ "obj-31", 0 ]
				}

			}
, 			{
				"patchline" : 				{
					"destination" : [ "obj-5", 0 ],
					"source" : [ "obj-32", 0 ]
				}

			}
, 			{
				"patchline" : 				{
					"destination" : [ "obj-32", 0 ],
					"source" : [ "obj-33", 0 ]
				}

			}
, 			{
				"patchline" : 				{
					"destination" : [ "obj-32", 1 ],
					"source" : [ "obj-34", 0 ]
				}

			}
 ]
	}

}
